<svg xmlns="http://www.w3.org/2000/svg" viewBox="0 0 128 128"><defs><style>.cls-1{fill:#0e6aed;}.cls-2{fill:#e6f0fd;}.cls-3,.cls-4,.cls-5{fill:none;stroke:#0a304e;stroke-miterlimit:10;stroke-width:2px;}.cls-4{stroke-dasharray:3.75 3.75;}.cls-5{stroke-dasharray:3.83 3.83;}.cls-6{fill:#fff;}</style></defs><g id="Fills"><polygon class="cls-1" points="114.24 99.64 114.24 120.11 13.76 120.11 13.76 62.18 54.18 62.18 54.18 99.64 114.24 99.64"/><path class="cls-2" d="M73.79,62.18V65.4s0,1.62,0,4.36A68.88,68.88,0,0,1,71.18,84.6c-1,3.22,2.61,5.52,2.61,7.06v8h40.45V62.18Z"/></g><g id="Linework"><line class="cls-3" x1="76.53" y1="62.18" x2="78.53" y2="62.18"/><line class="cls-4" x1="82.28" y1="62.18" x2="110.37" y2="62.18"/><polyline class="cls-3" points="112.24 62.18 114.24 62.18 114.24 64.18"/><line class="cls-5" x1="114.24" y1="68.01" x2="114.24" y2="96.73"/><line class="cls-3" x1="114.24" y1="98.64" x2="114.24" y2="100.64"/><polygon class="cls-3" points="114.24 99.64 114.24 120.11 13.76 120.11 13.76 62.18 54.18 62.18 54.18 99.64 114.24 99.64"/><path class="cls-3" d="M82.61,48.67c4.85-1.83,7.84-4.37,7.84-7.18s-3-5.34-7.84-7.18a46.19,46.19,0,0,0-10.39-2.44"/><polyline class="cls-3" points="85.35 41.6 82.61 48.67 89.69 52.25"/><path class="cls-6" d="M56.08,13.62,54.21,17V0H73.63a15.22,15.22,0,0,1-1.7,5.25l1.88-3.38V24a22.8,22.8,0,0,1-2.7,11l-.83,1.51A13.2,13.2,0,0,1,73.81,46a16,16,0,0,1-1.88,7.69l1.88-3.38V72.48a22.86,22.86,0,0,1-2.7,11L70.28,85a13.2,13.2,0,0,1,3.53,9.43A16.68,16.68,0,0,1,73,99.64H54.21v-8a22.86,22.86,0,0,1,2.7-11l.81-1.46a13.2,13.2,0,0,1-3.53-9.43,15.94,15.94,0,0,1,1.89-7.71L54.21,65.4V43.23a22.8,22.8,0,0,1,2.7-11l.81-1.46a13.22,13.22,0,0,1-3.53-9.43A15.94,15.94,0,0,1,56.08,13.62Z"/><path class="cls-3" d="M54.21,65.4l16.9-30.35a22.8,22.8,0,0,0,2.7-11V1.87L56.91,32.22a22.8,22.8,0,0,0-2.7,11Z"/><path class="cls-3" d="M56.08,62.05l14.2-25.49A13.2,13.2,0,0,1,73.81,46a16,16,0,0,1-1.89,7.71L57.72,79.19a13.2,13.2,0,0,1-3.53-9.43A15.94,15.94,0,0,1,56.08,62.05Z"/><path class="cls-3" d="M54.21,99.64v-8a22.86,22.86,0,0,1,2.7-11L73.81,50.3V72.48a22.86,22.86,0,0,1-2.7,11l-9,16.15Z"/><path class="cls-3" d="M70.28,85a13.2,13.2,0,0,1,3.53,9.43A16.68,16.68,0,0,1,73,99.64H62.12Z"/><polygon class="cls-3" points="65.96 -4.13 54.21 16.97 54.21 1.87 54.21 -4.13 65.96 -4.13"/><path class="cls-3" d="M66-4.12h7.75a15.47,15.47,0,0,1,.1,1.68,15.91,15.91,0,0,1-1.89,7.7l-14.2,25.5a13.22,13.22,0,0,1-3.53-9.43,15.94,15.94,0,0,1,1.89-7.71Z"/><path class="cls-3" d="M46.06,39.29c-4.84,1.84-7.84,4.38-7.84,7.18s3,5.35,7.84,7.18a55.22,55.22,0,0,0,18.92,3"/><polyline class="cls-3" points="43.32 46.37 46.06 39.29 38.98 35.71"/></g></svg>