<svg xmlns="http://www.w3.org/2000/svg" viewBox="0 0 128 128"><defs><style>.cls-1{fill:#e6f0fd;}.cls-2{fill:#0e6aed;}.cls-3{fill:none;stroke:#0a304e;stroke-miterlimit:10;stroke-width:2px;}</style></defs><g id="Fills"><path class="cls-1" d="M43.26,94.25v6.2H34.94V88.89c0-2,1.14-3.58,2.54-3.58H61.67c.95,0,1.73-1.1,1.73-2.45V79.93l-3.61-4.81v-4l3.61-4.81V61.66l-3.61-4.81v-4l3.61-4.81V45.15c0-1.35-.79-2.46-1.74-2.46H37.48c-1.4,0-2.54-1.6-2.54-3.58V27.55h8.32v6.2H61.69v-15H30.44V5.67H14.05V122.33H30.44v-13.1H61.69v-15Z"/><path class="cls-1" d="M76.19,33.75c1,0,1.74,1.1,1.74,2.46V56.43l6.46,3.73,18.38.06V5.67H86.38v13.1H61.69v15Z"/><path class="cls-1" d="M84.39,67.86l-6.46,3.72V91.8c0,1.35-.77,2.45-1.74,2.45H61.69v15H86.38v13.1h16.39V67.79Z"/><path class="cls-2" d="M128,43.76,112.91,60.25l-28.52-.09-6.46-3.73V36.21c0-1.36-.78-2.46-1.74-2.46H43.26v-6.2H34.94V39.11c0,2,1.14,3.58,2.54,3.58H61.66c1,0,1.74,1.11,1.74,2.46v2.92l-3.61,4.81v4l3.61,4.81v4.68l-3.61,4.81v4l3.61,4.81v2.93c0,1.35-.78,2.45-1.73,2.45H37.48c-1.4,0-2.54,1.6-2.54,3.58v11.56h8.32v-6.2H76.19c1,0,1.74-1.1,1.74-2.45V71.58l6.46-3.72,28.52-.11L128,84.24Z"/></g><g id="Linework"><line class="cls-3" x1="14.05" y1="9.63" x2="6.72" y2="9.63"/><line class="cls-3" x1="86.38" y1="9.63" x2="30.44" y2="9.63"/><line class="cls-3" x1="110" y1="9.63" x2="102.77" y2="9.63"/><line class="cls-3" x1="14.05" y1="118.37" x2="6.72" y2="118.37"/><line class="cls-3" x1="86.38" y1="118.37" x2="30.44" y2="118.37"/><line class="cls-3" x1="110" y1="118.37" x2="102.77" y2="118.37"/><path class="cls-3" d="M43.26,94.25v6.2H34.94V88.89c0-2,1.14-3.58,2.54-3.58H61.67c.95,0,1.73-1.1,1.73-2.45V79.93l-3.61-4.81v-4l3.61-4.81V61.66l-3.61-4.81v-4l3.61-4.81V45.15c0-1.35-.79-2.46-1.74-2.46H37.48c-1.4,0-2.54-1.6-2.54-3.58V27.55h8.32v6.2H76.19c1,0,1.74,1.1,1.74,2.46V56.43l6.46,3.73,28.52.09,18.25-20V87.7l-18.25-20-28.52.11-6.46,3.72V91.8c0,1.35-.77,2.45-1.74,2.45H43.26v6.2H34.94V88.89c0-2,1.14-3.58,2.54-3.58H61.67c.95,0,1.73-1.1,1.73-2.45V79.93l-3.61-4.81v-4l3.61-4.81V61.66l-3.61-4.81v-4l3.61-4.81V45.15c0-1.35-.79-2.46-1.74-2.46H37.48c-1.4,0-2.54-1.6-2.54-3.58V27.55h8.32v6.2"/><line class="cls-3" x1="34.94" y1="18.77" x2="34.94" y2="27.11"/><line class="cls-3" x1="34.94" y1="100.89" x2="34.94" y2="109.63"/><polyline class="cls-3" points="102.77 67.79 102.77 122.33 86.38 122.33 86.38 109.23 71.11 109.23 30.44 109.23 30.44 122.33 14.05 122.33 14.05 5.67 30.44 5.67 30.44 18.77 86.38 18.77 86.38 5.67 102.77 5.67 102.77 59.63"/></g></svg>