<svg xmlns="http://www.w3.org/2000/svg" viewBox="0 0 128 128"><defs><style>.cls-1{fill:#e6f0fd;}.cls-2,.cls-6{fill:#0e6aed;}.cls-3{fill:#fff;}.cls-4,.cls-5,.cls-7{fill:none;}.cls-5,.cls-6,.cls-7{stroke:#0a304e;stroke-width:2px;}.cls-5{stroke-miterlimit:10;}.cls-6,.cls-7{stroke-miterlimit:2;}</style></defs><g id="Fills"><path class="cls-1" d="M93.66,39.11,64,14.12l-29.66,25L4.68,64.1l59.32,50,59.32-50Zm-3.32,33.3-4.14,5.7L87.28,86,76.19,91.1l-8.06-4.69H64a3.5,3.5,0,1,1,0-7h6l6.55,3.81,3.07-1.41-.75-5.54,5.74-7.92,5.3-3V62.83l-5.3-3-5.75-7.92.76-5.54L76.57,45,70,48.8H58L51.42,45,48.35,46.4l.76,5.54-2.27,3.12A7.06,7.06,0,1,1,40,50.54a2.46,2.46,0,0,1,.26-.43V42.42l11.55-5.31,8,4.69h8.27l8.06-4.69,11.09,5.1-1.08,7.9,4.14,5.69L99.47,59V69.2Z"/><polygon class="cls-2" points="4.68 64.1 64 114.09 123.32 64.1 123.32 74.89 64 124.88 4.68 74.89 4.68 64.1"/><circle class="cls-3" cx="40.25" cy="57.59" r="7.06"/><path class="cls-2" d="M90.34,55.8,86.2,50.11l1.08-7.9-11.09-5.1L68.13,41.8H59.86l-8-4.69L40.26,42.42v7.69a2.46,2.46,0,0,0-.26.43h.26a7,7,0,0,1,6.58,4.53l2.27-3.12-.76-5.54L51.42,45,58,48.8H70L76.57,45l3.07,1.41-.76,5.54,5.75,7.92,5.3,3v2.55l-5.3,3-5.74,7.92.75,5.54-3.07,1.41L70,79.41H64a3.5,3.5,0,1,0,0,7h4.13l8.06,4.69L87.28,86,86.2,78.11l4.14-5.7,9.13-3.21V59Z"/></g><g id="Linework"><path class="cls-4" d="M93.66,39.11,64,14.12l-29.66,25L4.68,64.1l59.32,50,59.32-50Zm-3.32,33.3-4.14,5.7L87.28,86,76.19,91.1l-8.06-4.69H64a3.5,3.5,0,1,1,0-7h6l6.55,3.81,3.07-1.41-.75-5.54,5.74-7.92,5.3-3V62.83l-5.3-3-5.75-7.92.76-5.54L76.57,45,70,48.8H58L51.42,45,48.35,46.4l.76,5.54-2.27,3.12A7.06,7.06,0,1,1,40,50.54a2.46,2.46,0,0,1,.26-.43V42.42l11.55-5.31,8,4.69h8.27l8.06-4.69,11.09,5.1-1.08,7.9,4.14,5.69L99.47,59V69.2Z"/><polygon class="cls-4" points="4.68 64.1 64 114.09 123.32 64.1 123.32 74.89 64 124.88 4.68 74.89 4.68 64.1"/><polygon class="cls-5" points="64 14.12 34.34 39.11 4.68 64.1 4.68 74.89 64 124.88 123.32 74.89 123.32 64.1 93.66 39.11 64 14.12"/><line class="cls-6" x1="64" y1="114.09" x2="64" y2="124.88"/><line class="cls-5" x1="40.25" y1="50.53" x2="40.25"/><circle class="cls-5" cx="40.25" cy="57.59" r="7.06"/><path class="cls-7" d="M90.34,55.8,86.2,50.11l1.08-7.9-11.09-5.1L68.13,41.8H59.86l-8-4.69L40.26,42.42v7.69a2.46,2.46,0,0,0-.26.43h.26a7,7,0,0,1,6.58,4.53l2.27-3.12-.76-5.54L51.42,45,58,48.8H70L76.57,45l3.07,1.41-.76,5.54,5.75,7.92,5.3,3v2.55l-5.3,3-5.74,7.92.75,5.54-3.07,1.41L70,79.41H64a3.5,3.5,0,1,0,0,7h4.13l8.06,4.69L87.28,86,86.2,78.11l4.14-5.7,9.13-3.21V59Z"/><line class="cls-5" x1="40.25" y1="71.71" x2="40.25" y2="77.25"/><line class="cls-5" x1="33.19" y1="69.82" x2="27.88" y2="79.02"/><line class="cls-5" x1="33.19" y1="45.35" x2="27.88" y2="36.15"/><line class="cls-5" x1="47.32" y1="69.82" x2="52.63" y2="79.02"/><line class="cls-5" x1="52.49" y1="64.65" x2="57.29" y2="67.42"/><line class="cls-5" x1="54.38" y1="57.59" x2="65.01" y2="57.59"/><line class="cls-5" x1="28.02" y1="50.53" x2="23.22" y2="47.75"/><line class="cls-5" x1="26.13" y1="57.59" x2="15.5" y2="57.59"/><line class="cls-5" x1="28.02" y1="64.65" x2="23.22" y2="67.42"/><polyline class="cls-5" points="123.32 64.1 64 114.09 4.68 64.1"/></g></svg>