<svg xmlns="http://www.w3.org/2000/svg" viewBox="0 0 128 128"><defs><style>.cls-1{fill:#e6f0fd;}.cls-2{fill:#0e6aed;}.cls-3{fill:#fff;}.cls-4{fill:#0a304e;}.cls-5,.cls-6{fill:none;stroke:#0a304e;stroke-miterlimit:10;stroke-width:2px;}.cls-6{stroke-dasharray:4 4;}</style></defs><g id="Fills"><path class="cls-1" d="M104.64,73.48a41.73,41.73,0,1,0-81.28,0Z"/><path class="cls-2" d="M23.36,73.48a41.73,41.73,0,0,0,80.78,1.93,10.58,10.58,0,0,0,.5-1.93Z"/><circle class="cls-3" cx="67.96" cy="74.93" r="7.06"/></g><g id="Linework"><rect class="cls-4" x="11.04" y="110.39" width="2" height="2"/><rect class="cls-4" x="17.15" y="110.39" width="2" height="2"/><rect class="cls-4" x="23.26" y="110.39" width="2" height="2"/><rect class="cls-4" x="29.38" y="110.39" width="2" height="2"/><rect class="cls-4" x="35.49" y="110.39" width="2" height="2"/><rect class="cls-4" x="41.6" y="110.39" width="2" height="2"/><rect class="cls-4" x="47.72" y="110.39" width="2" height="2"/><rect class="cls-4" x="53.83" y="110.39" width="2" height="2"/><rect class="cls-4" x="59.94" y="110.39" width="2" height="2"/><rect class="cls-4" x="66.06" y="110.39" width="2" height="2"/><rect class="cls-4" x="72.17" y="110.39" width="2" height="2"/><rect class="cls-4" x="78.28" y="110.39" width="2" height="2"/><rect class="cls-4" x="84.4" y="110.39" width="2" height="2"/><rect class="cls-4" x="90.51" y="110.39" width="2" height="2"/><rect class="cls-4" x="96.62" y="110.39" width="2" height="2"/><rect class="cls-4" x="102.74" y="110.39" width="2" height="2"/><rect class="cls-4" x="108.85" y="110.39" width="2" height="2"/><rect class="cls-4" x="114.96" y="110.39" width="2" height="2"/><rect class="cls-4" x="11.04" y="100.91" width="2" height="2"/><rect class="cls-4" x="17.15" y="100.91" width="2" height="2"/><rect class="cls-4" x="23.26" y="100.91" width="2" height="2"/><rect class="cls-4" x="29.38" y="100.91" width="2" height="2"/><rect class="cls-4" x="35.49" y="100.91" width="2" height="2"/><rect class="cls-4" x="90.51" y="100.91" width="2" height="2"/><rect class="cls-4" x="96.62" y="100.91" width="2" height="2"/><rect class="cls-4" x="102.74" y="100.91" width="2" height="2"/><rect class="cls-4" x="108.85" y="100.91" width="2" height="2"/><rect class="cls-4" x="114.96" y="100.91" width="2" height="2"/><rect class="cls-4" x="11.04" y="91.43" width="2" height="2"/><rect class="cls-4" x="17.15" y="91.43" width="2" height="2"/><rect class="cls-4" x="23.26" y="91.43" width="2" height="2"/><rect class="cls-4" x="102.74" y="91.43" width="2" height="2"/><rect class="cls-4" x="108.85" y="91.43" width="2" height="2"/><rect class="cls-4" x="114.96" y="91.43" width="2" height="2"/><rect class="cls-4" x="11.04" y="81.96" width="2" height="2"/><rect class="cls-4" x="17.15" y="81.96" width="2" height="2"/><rect class="cls-4" x="108.85" y="81.96" width="2" height="2"/><rect class="cls-4" x="114.96" y="81.96" width="2" height="2"/><rect class="cls-4" x="11.04" y="72.48" width="2" height="2"/><rect class="cls-4" x="114.96" y="72.48" width="2" height="2"/><path class="cls-5" d="M61,73.48H23.36a41.73,41.73,0,0,0,80.78,1.93,10.58,10.58,0,0,0,.5-1.93"/><path class="cls-6" d="M105.33,69.72a40,40,0,0,0,.4-5.72A41.75,41.75,0,0,0,75.94,24"/><path class="cls-6" d="M60.9,22.38A41.74,41.74,0,0,0,22.27,64a42.22,42.22,0,0,0,.93,8.77"/><line class="cls-5" x1="67.96" y1="67.87" x2="67.96" y2="0.09"/><circle class="cls-5" cx="67.96" cy="74.93" r="7.06"/><line class="cls-5" x1="60.9" y1="87.16" x2="55.58" y2="96.37"/><line class="cls-5" x1="60.9" y1="62.7" x2="55.58" y2="53.49"/><line class="cls-5" x1="75.02" y1="62.7" x2="80.34" y2="53.49"/><line class="cls-5" x1="55.73" y1="81.99" x2="50.93" y2="84.76"/><line class="cls-5" x1="55.73" y1="67.87" x2="50.93" y2="65.1"/><line class="cls-5" x1="67.96" y1="89.05" x2="67.96" y2="94.59"/><line class="cls-5" x1="80.19" y1="67.87" x2="84.99" y2="65.1"/><line class="cls-5" x1="75.02" y1="87.16" x2="80.34" y2="96.37"/><line class="cls-5" x1="80.19" y1="81.99" x2="84.99" y2="84.76"/></g></svg>