<svg xmlns="http://www.w3.org/2000/svg" viewBox="0 0 128 128"><defs><style>.cls-1{fill:#e6f0fd;}.cls-2{fill:#0e6aed;}.cls-3{fill:#fff;}.cls-4{fill:none;stroke:#0a304e;stroke-miterlimit:10;stroke-width:2px;}</style></defs><g id="Fills"><path class="cls-1" d="M58.5,0V34.4a40.91,40.91,0,0,1,0,62.74l-.31.1,5.23,5.23a.89.89,0,0,0,1.28,0L83.23,83.94V0"/><path class="cls-2" d="M101.42,65.75,64.7,102.47a.89.89,0,0,1-1.28,0l-21-21a.9.9,0,0,1,0-1.27L59,63.62,51.4,56,30.28,77.13a5.24,5.24,0,0,0,0,7.43l30.06,30.07a5.27,5.27,0,0,0,7.44,0L109,73.37Z"/><path class="cls-3" d="M108,128V99.35h-25L67.78,114.63a5.27,5.27,0,0,1-7.44,0L45.06,99.35h-25V128"/></g><g id="Linework"><path class="cls-4" d="M101.42,65.75,64.7,102.47a.89.89,0,0,1-1.28,0l-21-21a.9.9,0,0,1,0-1.27L59,63.62,51.4,56,30.28,77.13a5.24,5.24,0,0,0,0,7.43l30.06,30.07a5.27,5.27,0,0,0,7.44,0L109,73.37Z"/><path class="cls-4" d="M108,128V99.35h-25L67.78,114.63a5.27,5.27,0,0,1-7.44,0L45.06,99.35h-25V128"/><path class="cls-4" d="M58.5,0V34.4a40.91,40.91,0,0,1,0,62.74l-.31.1,5.23,5.23a.89.89,0,0,0,1.28,0L83.23,83.94V0"/></g></svg>