<svg xmlns="http://www.w3.org/2000/svg" viewBox="0 0 128 128"><defs><style>.cls-1{fill:#fff;}.cls-2{fill:#e6f0fd;}.cls-3{fill:#0e6aed;}.cls-4,.cls-5,.cls-6{fill:none;stroke:#0a304e;stroke-width:2px;}.cls-4{stroke-miterlimit:2;}.cls-5{stroke-miterlimit:5;}.cls-6{stroke-miterlimit:10;stroke-dasharray:4 4;}</style></defs><g id="Fills"><path class="cls-1" d="M111.54,81.13v35.61H16.46V81.13c4.75,0,4.75,8,9.5,8s4.76-8,9.51-8,4.75,8,9.51,8,4.75-8,9.5-8,4.76,8,9.51,8,4.75-8,9.51-8,4.75,8,9.51,8,4.75-8,9.51-8,4.75,8,9.51,8S106.79,81.13,111.54,81.13Z"/><path class="cls-1" d="M111.54,17.08V44.69c-4.75,0-4.75,8-9.51,8s-4.76-8-9.51-8-4.76,8-9.51,8-4.76-8-9.51-8-4.76,8-9.51,8-4.75-8-9.51-8-4.75,8-9.5,8-4.76-8-9.51-8-4.75,8-9.51,8-4.75-8-9.5-8V17.08Z"/><path class="cls-2" d="M83,37.72v15c-4.76,0-4.76-8-9.51-8s-4.76,8-9.51,8-4.75-8-9.51-8-4.75,8-9.49,8v-15l19-11Z"/><polygon class="cls-3" points="64 63.18 44.99 74.16 44.99 96.11 64 107.08 83.01 96.11 83.01 74.16 64 63.18"/></g><g id="Linework"><polygon class="cls-4" points="64 63.18 44.99 74.16 44.99 96.11 64 107.08 83.01 96.11 83.01 74.16 64 63.18"/><path class="cls-5" d="M111.54,81.13v35.61H16.46V81.13c4.75,0,4.75,8,9.5,8s4.76-8,9.51-8,4.75,8,9.51,8,4.75-8,9.5-8,4.76,8,9.51,8,4.75-8,9.51-8,4.75,8,9.51,8,4.75-8,9.51-8,4.75,8,9.51,8S106.79,81.13,111.54,81.13Z"/><polyline class="cls-6" points="83.01 52.7 83.01 37.72 64 26.75 44.99 37.72 44.99 52.7"/><path class="cls-5" d="M111.54,17.08V44.69c-4.75,0-4.75,8-9.51,8s-4.76-8-9.51-8-4.76,8-9.51,8-4.76-8-9.51-8-4.76,8-9.51,8-4.75-8-9.51-8-4.75,8-9.5,8-4.76-8-9.51-8-4.75,8-9.51,8-4.75-8-9.5-8V17.08Z"/></g></svg>