<svg xmlns="http://www.w3.org/2000/svg" viewBox="0 0 128 128"><defs><style>.cls-1,.cls-6{fill:#0e6aed;}.cls-2{fill:#fff;}.cls-3{fill:#e6f0fd;}.cls-4,.cls-5{fill:none;}.cls-5,.cls-6{stroke:#0a304e;stroke-width:2px;}.cls-5{stroke-miterlimit:10;}.cls-6{stroke-miterlimit:2;}</style></defs><g id="Fills"><polygon class="cls-1" points="4.68 64.1 64 114.09 123.32 64.1 123.32 74.89 64 124.88 4.68 74.89 4.68 64.1"/><path class="cls-2" d="M24.25,29.89c0-2.56-1.36-4.36-3.58-4.72a4.14,4.14,0,0,0-3.05.73A4.05,4.05,0,0,0,16,28.56c-.36,2.23.92,4.08,3.35,4.88l4.91,1.61Z"/><path class="cls-3" d="M93.66,39.11,64,14.12,41.67,32.93V46.81A33,33,0,0,1,64,38.53C80.76,38.53,94.35,50,94.35,64.1S80.76,89.68,64,89.68a35.56,35.56,0,0,1-8.67-1.08,3.34,3.34,0,0,1,.33-6.66,2.94,2.94,0,0,1,.94.16,37.63,37.63,0,0,0,7.4.71c32.92,0,32.73-37.41,0-37.41C52.56,45.4,45.1,50,41.64,55.91c0,0,0-.3,0-.46a3.59,3.59,0,1,1-7.17,0V39l-.16.14-8.58,7.22a5.88,5.88,0,0,1,.3,1.88v5.17l-4.91-1.62A5.89,5.89,0,0,1,20,51.22L4.69,64.09s0,0,0,0l59.31,50,59.3-50s0,0,0,0Zm-31.9-7.64C61.4,33.7,59.6,35.05,57,35.05H51.88s1.1-3.37,1.61-4.91c.8-2.42,2.65-3.71,4.88-3.35A4.06,4.06,0,0,1,61,28.43,4.11,4.11,0,0,1,61.76,31.47ZM55.21,55.62c2.28-1.16,4.5-.75,5.82,1.07a4.08,4.08,0,0,1-.91,5.71c-1.83,1.32-4.06,1-5.87-.8L50.6,58Z"/><path class="cls-2" d="M57,35.05c2.56,0,4.36-1.35,4.72-3.58a4.11,4.11,0,0,0-.73-3,4.06,4.06,0,0,0-2.66-1.64c-2.23-.36-4.08.93-4.88,3.35-.51,1.54-1.61,4.91-1.61,4.91Z"/><path class="cls-2" d="M26.06,48.21c0-2.56-1.36-4.36-3.59-4.71a4.08,4.08,0,0,0-4.68,3.39c-.36,2.22.93,4.08,3.36,4.87l4.91,1.62Z"/><path class="cls-1" d="M64,38.53a33,33,0,0,0-22.33,8.28v8.64c0,.16,0,.47,0,.46C45.1,50,52.56,45.4,64,45.4c32.73,0,32.92,37.41,0,37.41a37.63,37.63,0,0,1-7.4-.71,2.94,2.94,0,0,0-.94-.16,3.34,3.34,0,0,0-.33,6.66A35.56,35.56,0,0,0,64,89.68c16.76,0,30.35-11.45,30.35-25.58S80.76,38.53,64,38.53Z"/><path class="cls-2" d="M54.25,61.6c1.81,1.81,4,2.12,5.87.8A4.08,4.08,0,0,0,61,56.69c-1.32-1.82-3.54-2.23-5.82-1.07L50.6,58Z"/><path class="cls-2" d="M34.5,0V55.45a3.59,3.59,0,1,0,7.17,0V0"/></g><g id="Linework"><polygon class="cls-4" points="4.68 64.1 64 114.09 123.32 64.1 123.32 74.89 64 124.88 4.68 74.89 4.68 64.1"/><path class="cls-5" d="M24.25,29.89c0-2.56-1.36-4.36-3.58-4.72a4.14,4.14,0,0,0-3.05.73A4.05,4.05,0,0,0,16,28.56c-.36,2.23.92,4.08,3.35,4.88l4.91,1.61Z"/><line class="cls-6" x1="64" y1="114.09" x2="64" y2="124.88"/><path class="cls-4" d="M93.66,39.11,64,14.12,41.67,32.93V46.81A33,33,0,0,1,64,38.53C80.76,38.53,94.35,50,94.35,64.1S80.76,89.68,64,89.68a35.56,35.56,0,0,1-8.67-1.08,3.34,3.34,0,0,1,.33-6.66,2.94,2.94,0,0,1,.94.16,37.63,37.63,0,0,0,7.4.71c32.92,0,32.73-37.41,0-37.41C52.56,45.4,45.1,50,41.64,55.91c0,0,0-.3,0-.46a3.59,3.59,0,1,1-7.17,0V39l-.16.14-8.58,7.22a5.88,5.88,0,0,1,.3,1.88v5.17l-4.91-1.62A5.89,5.89,0,0,1,20,51.22L4.69,64.09s0,0,0,0l59.31,50,59.3-50s0,0,0,0Zm-31.9-7.64C61.4,33.7,59.6,35.05,57,35.05H51.88s1.1-3.37,1.61-4.91c.8-2.42,2.65-3.71,4.88-3.35A4.06,4.06,0,0,1,61,28.43,4.11,4.11,0,0,1,61.76,31.47ZM55.21,55.62c2.28-1.16,4.5-.75,5.82,1.07a4.08,4.08,0,0,1-.91,5.71c-1.83,1.32-4.06,1-5.87-.8L50.6,58Z"/><polyline class="cls-5" points="4.69 64.11 64 114.09 123.3 64.11"/><path class="cls-5" d="M54.25,61.6c1.81,1.81,4,2.12,5.87.8A4.08,4.08,0,0,0,61,56.69c-1.32-1.82-3.54-2.23-5.82-1.07L50.6,58Z"/><path class="cls-5" d="M57,35.05c2.56,0,4.36-1.35,4.72-3.58a4.11,4.11,0,0,0-.73-3,4.06,4.06,0,0,0-2.66-1.64c-2.23-.36-4.08.93-4.88,3.35-.51,1.54-1.61,4.91-1.61,4.91Z"/><path class="cls-5" d="M26.06,48.21c0-2.56-1.36-4.36-3.59-4.71a4.08,4.08,0,0,0-4.68,3.39c-.36,2.22.93,4.08,3.36,4.87l4.91,1.62Z"/><path class="cls-5" d="M64,38.53a33,33,0,0,0-22.33,8.28v8.64c0,.16,0,.47,0,.46C45.1,50,52.56,45.4,64,45.4c32.73,0,32.92,37.41,0,37.41a37.63,37.63,0,0,1-7.4-.71,2.94,2.94,0,0,0-.94-.16,3.34,3.34,0,0,0-.33,6.66A35.56,35.56,0,0,0,64,89.68c16.76,0,30.35-11.45,30.35-25.58S80.76,38.53,64,38.53Z"/><path class="cls-5" d="M93.66,39.11,64,14.12,41.67,32.94V55.45a3.59,3.59,0,1,1-7.17,0V39l-.16.14-8.57,7.23a6.06,6.06,0,0,1,.29,1.87v5.17l-4.91-1.62A5.89,5.89,0,0,1,20,51.22L4.68,64.1V74.89l59.32,50,59.32-50V64.1Z"/><path class="cls-5" d="M34.5,0V55.45a3.59,3.59,0,1,0,7.17,0V0"/></g></svg>